<svg width="542" height="812" viewBox="0 0 542 812" fill="none" xmlns="http://www.w3.org/2000/svg">
<line x1="37.5" y1="16" x2="37.5" y2="796" stroke="#202020" stroke-opacity="0.18"/>
<line x1="335.5" y1="16" x2="335.5" y2="796" stroke="#202020" stroke-opacity="0.18"/>
<line x1="59.5" y1="16" x2="59.5" y2="796" stroke="#202020" stroke-opacity="0.18"/>
<line x1="356.5" y1="16" x2="356.5" y2="796" stroke="#202020" stroke-opacity="0.18"/>
<line x1="80.5" y1="16" x2="80.5" y2="796" stroke="#202020" stroke-opacity="0.18"/>
<line x1="377.5" y1="16" x2="377.5" y2="796" stroke="#202020" stroke-opacity="0.18"/>
<line x1="101.5" y1="16" x2="101.5" y2="796" stroke="#202020" stroke-opacity="0.18"/>
<line x1="399.5" y1="16" x2="399.5" y2="796" stroke="#202020" stroke-opacity="0.18"/>
<line x1="122.5" y1="16" x2="122.5" y2="796" stroke="#202020" stroke-opacity="0.18"/>
<line x1="420.5" y1="16" x2="420.5" y2="796" stroke="#202020" stroke-opacity="0.18"/>
<line x1="144.5" y1="16" x2="144.5" y2="796" stroke="#202020" stroke-opacity="0.18"/>
<line x1="441.5" y1="16" x2="441.5" y2="796" stroke="#202020" stroke-opacity="0.18"/>
<line x1="165.5" y1="16" x2="165.5" y2="796" stroke="#202020" stroke-opacity="0.18"/>
<line x1="462.5" y1="16" x2="462.5" y2="796" stroke="#202020" stroke-opacity="0.18"/>
<line x1="186.5" y1="16" x2="186.5" y2="796" stroke="#202020" stroke-opacity="0.18"/>
<line x1="484.5" y1="16" x2="484.5" y2="796" stroke="#202020" stroke-opacity="0.18"/>
<line x1="207.5" y1="16" x2="207.5" y2="796" stroke="#202020" stroke-opacity="0.18"/>
<line x1="505.5" y1="16" x2="505.5" y2="796" stroke="#202020" stroke-opacity="0.18"/>
<line x1="229.5" y1="16" x2="229.5" y2="796" stroke="#202020" stroke-opacity="0.18"/>
<line x1="250.5" y1="16" x2="250.5" y2="796" stroke="#202020" stroke-opacity="0.18"/>
<line x1="271.5" y1="16" x2="271.5" y2="796" stroke="#202020" stroke-opacity="0.18"/>
<line x1="292.5" y1="16" x2="292.5" y2="796" stroke="#202020" stroke-opacity="0.18"/>
<line x1="314.5" y1="16" x2="314.5" y2="796" stroke="#202020" stroke-opacity="0.18"/>
<line x1="16" y1="684.5" x2="526" y2="684.5" stroke="#202020" stroke-opacity="0.18"/>
<line x1="16" y1="780.5" x2="526" y2="780.5" stroke="#202020" stroke-opacity="0.18"/>
<line x1="16" y1="756.5" x2="526" y2="756.5" stroke="#202020" stroke-opacity="0.18"/>
<line x1="16" y1="732.5" x2="526" y2="732.5" stroke="#202020" stroke-opacity="0.18"/>
<line x1="16" y1="708.5" x2="526" y2="708.5" stroke="#202020" stroke-opacity="0.18"/>
<line x1="16" y1="228.43" x2="526" y2="228.43" stroke="#202020" stroke-opacity="0.18"/>
<line x1="16" y1="660.5" x2="526" y2="660.5" stroke="#202020" stroke-opacity="0.18"/>
<line x1="16" y1="204.43" x2="526" y2="204.43" stroke="#202020" stroke-opacity="0.18"/>
<line x1="16" y1="636.5" x2="526" y2="636.5" stroke="#202020" stroke-opacity="0.18"/>
<line x1="16" y1="180.43" x2="526" y2="180.43" stroke="#202020" stroke-opacity="0.18"/>
<line x1="16" y1="612.5" x2="526" y2="612.5" stroke="#202020" stroke-opacity="0.18"/>
<line x1="16" y1="156.43" x2="526" y2="156.43" stroke="#202020" stroke-opacity="0.18"/>
<line x1="16" y1="588.5" x2="526" y2="588.5" stroke="#202020" stroke-opacity="0.18"/>
<line x1="16" y1="132.43" x2="526" y2="132.43" stroke="#202020" stroke-opacity="0.18"/>
<line x1="16" y1="564.5" x2="526" y2="564.5" stroke="#202020" stroke-opacity="0.18"/>
<line x1="16" y1="108.43" x2="526" y2="108.43" stroke="#202020" stroke-opacity="0.18"/>
<line x1="16" y1="540.5" x2="526" y2="540.5" stroke="#202020" stroke-opacity="0.18"/>
<line x1="16" y1="84.4299" x2="526" y2="84.4299" stroke="#202020" stroke-opacity="0.18"/>
<line x1="16" y1="516.5" x2="526" y2="516.5" stroke="#202020" stroke-opacity="0.18"/>
<line x1="16" y1="60.4299" x2="526" y2="60.4299" stroke="#202020" stroke-opacity="0.18"/>
<line x1="16" y1="492.5" x2="526" y2="492.5" stroke="#202020" stroke-opacity="0.18"/>
<line x1="16" y1="36.4299" x2="526" y2="36.4299" stroke="#202020" stroke-opacity="0.18"/>
<line x1="16" y1="468.5" x2="526" y2="468.5" stroke="#202020" stroke-opacity="0.18"/>
<line x1="16" y1="444.5" x2="526" y2="444.5" stroke="#202020" stroke-opacity="0.18"/>
<line x1="16" y1="420.5" x2="526" y2="420.5" stroke="#202020" stroke-opacity="0.18"/>
<line x1="16" y1="396.5" x2="526" y2="396.5" stroke="#202020" stroke-opacity="0.18"/>
<line x1="16" y1="276.5" x2="526" y2="276.5" stroke="#202020" stroke-opacity="0.18"/>
<line x1="16" y1="300.5" x2="526" y2="300.5" stroke="#202020" stroke-opacity="0.18"/>
<line x1="16" y1="324.5" x2="526" y2="324.5" stroke="#202020" stroke-opacity="0.18"/>
<line x1="16" y1="348.5" x2="526" y2="348.5" stroke="#202020" stroke-opacity="0.18"/>
<line x1="16" y1="372.5" x2="526" y2="372.5" stroke="#202020" stroke-opacity="0.18"/>
<line x1="16" y1="252.43" x2="526" y2="252.43" stroke="#202020" stroke-opacity="0.18"/>
<path d="M483.137 742.863C481.818 741.545 480.009 740.727 478 740.727C476.071 740.727 474.222 741.493 472.858 742.857C471.494 744.221 470.728 746.071 470.728 748C470.728 749.929 471.494 751.778 472.858 753.142C474.222 754.506 476.071 755.273 478 755.273C481.391 755.273 484.218 752.954 485.028 749.818H483.137C482.391 751.936 480.373 753.454 478 753.454C476.554 753.454 475.166 752.88 474.143 751.857C473.12 750.834 472.546 749.446 472.546 748C472.546 746.553 473.12 745.166 474.143 744.143C475.166 743.12 476.554 742.545 478 742.545C479.509 742.545 480.855 743.173 481.837 744.163L478.909 747.091H485.273V740.727L483.137 742.863Z" fill="white"/>
</svg>
