<svg width="18" height="19" viewBox="0 0 18 19" fill="none" xmlns="http://www.w3.org/2000/svg">
<g id="microphone-01">
<path id="Icon" d="M3.29846 8.88266C3.49783 10.2525 4.18375 11.5048 5.23072 12.4105C6.2777 13.3161 7.61573 13.8145 9.00004 13.8145M9.00004 13.8145C10.3843 13.8145 11.7224 13.3161 12.7694 12.4105C13.8163 11.5048 14.5022 10.2525 14.7016 8.88266M9.00004 13.8145V16.6998M9.00086 2.2998C8.34616 2.2998 7.71826 2.55989 7.25532 3.02283C6.79237 3.48578 6.53229 4.11367 6.53229 4.76838V8.0598C6.53229 8.71451 6.79237 9.3424 7.25532 9.80535C7.71826 10.2683 8.34616 10.5284 9.00086 10.5284C9.65557 10.5284 10.2835 10.2683 10.7464 9.80535C11.2094 9.3424 11.4694 8.71451 11.4694 8.0598V4.76838C11.4694 4.11367 11.2094 3.48578 10.7464 3.02283C10.2835 2.55989 9.65557 2.2998 9.00086 2.2998Z" stroke="white" stroke-width="1.5" stroke-linecap="round" stroke-linejoin="round"/>
</g>
</svg>
