<svg width="40" height="24" viewBox="0 0 40 24" fill="none" xmlns="http://www.w3.org/2000/svg">
<g id="ytel-logo 1" clip-path="url(#clip0_933_1038)">
<g id="Layer 2">
<g id="Layer 3">
<path id="Vector" fill-rule="evenodd" clip-rule="evenodd" d="M32.8147 3.05689V11.9584C32.6919 12.0235 32.5762 12.1011 32.4693 12.1899C31.7405 12.8332 30.9771 13.4362 30.1826 13.9964V3.05689H32.8147ZM6.5004 2.16224C6.48591 1.62887 6.67768 1.11046 7.0358 0.714921C7.22762 0.499157 7.46122 0.324545 7.72246 0.201644C7.98369 0.0787442 8.26714 0.0101108 8.55567 -0.000104394C8.8629 -0.00902002 9.16827 0.0505123 9.44966 0.17418C9.73105 0.297848 9.98141 0.482555 10.1826 0.714921C10.3836 0.897916 10.5434 1.12164 10.6512 1.3712C10.759 1.62077 10.8124 1.89043 10.8078 2.16224C10.819 2.46099 10.7683 2.75883 10.6591 3.03711C10.5499 3.3154 10.3844 3.56814 10.173 3.77954C9.96157 3.99093 9.70882 4.15643 9.43053 4.26567C9.15225 4.37491 8.85442 4.42554 8.55567 4.4144C7.98579 4.40126 7.44232 4.17152 7.0358 3.77192C6.66597 3.31918 6.47542 2.74631 6.5004 2.16224ZM5.32251 3.1467L8.70074 8.72183L12.2586 3.1467H16.0272L10.5418 12.0103V18.8945H6.908V12.0103L1.58503 3.1467H5.32251ZM12.9736 10.0828L15.6368 5.13288V7.38504H18.1584L18.1032 9.99299H15.6368V14.6735C15.6368 15.567 15.8153 16.1622 16.1722 16.4593C16.5966 16.7994 17.089 17.0444 17.6161 17.1778L18.2759 17.3194L17.06 19.6061C16.998 19.617 16.9377 19.6355 16.8804 19.6614L16.0755 19.392C15.2554 19.1478 14.5111 18.6984 13.9132 18.0863C13.5787 17.6913 13.3346 17.228 13.1982 16.7287C13.0642 16.155 13.0039 15.5665 13.0185 14.9774V10.0828H12.9736ZM5.55394 16.1933C3.81301 17.3447 3.09222 18.2739 3.39159 18.9809C4.02256 20.5768 6.1377 21.3574 9.73701 21.3229C12.1502 21.269 14.5493 20.9387 16.8873 20.3384C16.9518 20.3189 17.0126 20.2886 17.0669 20.2486C18.3887 19.8755 19.7105 19.4587 21.0323 18.9982C21.286 18.9846 21.5342 18.9187 21.7612 18.8047C23.6586 18.0908 25.5052 17.2483 27.288 16.2831C28.2764 15.7578 29.2368 15.1813 30.1653 14.556C30.9759 14.0195 31.7382 13.4656 32.452 12.8945C32.5455 12.7709 32.663 12.6675 32.7975 12.5906C35.2638 10.4213 36.1987 8.57906 35.6023 7.0638C35.3513 6.58712 34.8389 6.37871 34.0652 6.43858C37.3052 5.56812 39.1475 5.68326 39.5919 6.78401C40.1515 8.22557 38.7215 10.5491 35.3018 13.7546C34.4912 14.4225 33.6507 15.0834 32.7802 15.7374C31.9696 16.3085 31.1475 16.8623 30.3139 17.3989C27.6583 18.9025 24.8692 20.1572 21.9823 21.1467C16.6075 22.9222 11.7716 23.8698 7.47449 23.9895C3.13137 24.1162 0.674262 23.4369 0.103163 21.9515C-0.47024 20.5445 1.34669 18.6251 5.55394 16.1933ZM29.4538 14.2106H20.7249C20.8042 14.8501 21.0724 15.4514 21.4952 15.9377C21.7991 16.224 22.1596 16.4435 22.5534 16.5822C22.9472 16.7208 23.3657 16.7754 23.7819 16.7426C24.5925 16.6597 25.2246 16.5698 25.6783 16.4731C24.4048 17.0742 23.0991 17.6245 21.7612 18.1243C21.4872 18.2187 21.2488 18.3085 21.0462 18.3937C20.1711 17.9257 19.4412 17.2268 18.9356 16.373C18.3442 15.4323 18.046 14.3368 18.079 13.2261C18.079 11.3839 18.6155 9.89972 19.6887 8.77364C20.1944 8.25914 20.8034 7.85767 21.4757 7.5957C22.1479 7.33372 22.868 7.21719 23.5885 7.25378C24.6592 7.17262 25.7297 7.41319 26.6627 7.94463C27.5528 8.44384 28.2743 9.19655 28.7353 10.107C29.2235 10.9406 29.4676 12.168 29.4676 13.7892L29.4538 14.2106ZM23.6783 9.58193C22.8892 9.55505 22.1204 9.83484 21.5332 10.3626C21.2761 10.592 21.0709 10.8737 20.9315 11.1888C20.7921 11.504 20.7217 11.8453 20.7249 12.1899H26.7007C26.7004 11.8311 26.6239 11.4766 26.4762 11.1496C26.3286 10.8227 26.1131 10.5309 25.8441 10.2935C25.237 9.79306 24.4639 9.53907 23.6783 9.58193Z" fill="url(#paint0_linear_933_1038)"/>
</g>
</g>
</g>
<defs>
<linearGradient id="paint0_linear_933_1038" x1="40.4152" y1="-0.000997425" x2="-0.0989875" y2="0.167243" gradientUnits="userSpaceOnUse">
<stop stop-color="#5590F5"/>
<stop offset="1" stop-color="#44BFFF"/>
</linearGradient>
<clipPath id="clip0_933_1038">
<rect width="39.7409" height="24" fill="white"/>
</clipPath>
</defs>
</svg>
